<svg width="826" height="657" xmlns="http://www.w3.org/2000/svg" xmlns:xlink="http://www.w3.org/1999/xlink" overflow="hidden"><defs><clipPath id="clip0"><path d="M238 14 1064 14 1064 671 238 671Z" fill-rule="evenodd" clip-rule="evenodd"/></clipPath></defs><g xmlns="http://www.w3.org/2000/svg" clip-path="url(#clip0)" transform="translate(-238 -14)" fill="#121212"><path d="M742.435 28.6917C720.695 10.6464 654.199 6.73538 597.714 45.8157 506.974 19.0786 379.135 71.2572 355.528 103.412 363.896 104.397 375.798 104.204 381.81 108.133 277.698 141.529 281.352 206.139 310.329 224.812 296.854 245.775 287.501 262.026 278.737 280.633 268.667 274.187 260.078 272.204 249.909 280.95 235.028 297.352 253.715 300.738 256.586 301.309 267.757 297.627 263.027 351.071 238.276 343.856 235.939 362.814 248.912 363.514 259.53 362.448 256.335 425.702 280.818 459.509 301.178 491.549 284.496 511.823 290.78 536.809 302.365 552.371 294 582.364 358.657 624.724 372.08 606.426 380.741 610.938 393.525 607.205 401.008 602.883 410.759 602.587 419.922 605.825 430.262 601.995 558.389 686.628 721.849 689.4 860.575 626.213 887.999 634.229 911.301 621.043 902.214 593.134 953.661 569.435 998.631 514.523 1010.62 453.722 1043.89 438.652 1037.7 378.823 1025.04 381.42 1012.67 383.471 1024.44 406.723 1009.13 401.707 1007.71 394.238 1002.75 394.425 1005.45 386.956 1014.06 380.744 1021.49 366.876 1025.97 355.952 1043.58 373.997 1064.72 364.952 1062.89 341.183 1036.27 335.732 1032.63 307.902 1046.65 289.494L1034.83 279.156C1037.46 247.949 1027.72 217.92 1014.45 193.192L1025.97 187.592C1016.49 146.038 928.69 75.0384 873.866 57.6304 892.762 9.32053 831.569 0.468756 830.442 39.3196 799.34 30.6729 768.238 27.9156 742.435 28.6917Z" fill-rule="evenodd"/><path d="M888.875 583.024C925.135 612.254 864.876 647.618 842.776 598.772 825.344 553.499 871.884 505.996 908.322 491.396 913.54 487.973 900.801 483.434 895.357 487.817L872.467 508.735C868.402 500.089 876.683 494.79 878.791 487.817 870.787 491.632 863.344 494.89 856.462 504.281 843.865 480.406 869.427 461.55 875.91 457.752 838.633 442.558 850.178 408.404 877.434 417.191 872.833 451.132 915.93 441.573 932.092 411.938 934.328 402.297 946.899 410.077 945.207 416.051 944.677 418.498 939.622 421.694 943.616 423.392 948.182 425.987 951.239 413.344 971.388 400.951 977.124 397.853 978.336 402.998 974.018 406.394 969.166 412.299 956.523 422.699 959.462 424.108 967.866 417.427 972.499 418.989 979.897 408.81 992.787 394.322 940.829 368.843 950.954 405.063 915.915 411.646 911.792 364.523 954.421 361.114 974.551 359.94 993.927 367.758 1001.24 388.316 1026.04 468.385 978.445 540.461 926.329 571.57 904.578 576.1 958.232 540.163 983.232 473.5 947.672 493.794 852.541 521.581 862.224 581.592 864.824 595.309 885.269 605.278 888.875 583.024Z" fill-rule="evenodd" fill="#222324"/><path d="M453.87 584.686 437 600.562C558.076 681.881 735.033 685.409 854 622.259L847.674 614.321 800.755 631.255C820.085 617.32 833.088 590.684 825.532 589.449 816.57 588.743 809.717 602.855 800.228 604.796 814.989 585.215 820.26 565.636 809.717 553.993 779.14 604.266 757.526 608.5 726.949 615.909L742.238 620.671C708.147 659.126 608.158 651.011 537.164 632.843 565.281 634.959 600.777 633.372 621.513 624.905L615.187 635.489C715.351 641.663 741.183 573.75 706.917 558.756 731.167 580.276 660.524 617.673 622.568 614.85 649.805 609.029 674.407 601.091 695.319 578.865 699.185 578.512 707.795 582.393 706.389 575.69 703.578 568.811 702.875 564.577 696.373 561.402 687.235 558.756 688.641 569.869 678.449 570.927 699.185 541.116 667.729 522.418 655.253 544.997 690.398 558.932 621.689 605.148 586.719 585.215 568.444 574.984 567.038 602.855 590.41 613.263 544.896 617.496 495.693 611.675 453.87 584.686Z" fill-rule="evenodd" fill="#222324"/><path d="M315.823 368.769C312.312 335.449 350.406 361.579 346.369 402.965L336.362 398.23C315.472 445.229 334.08 492.753 360.588 502.924 369.541 506.782 369.541 500.644 363.748 493.981 354.268 479.074 372.701 469.429 374.281 482.406 377.617 509.588 386.219 551.501 413.254 575 417.818 572.019 421.329 571.142 425.367 561.321 390.959 504.678 394.47 481.179 428 429.27 413.078 421.203 396.576 425.763 383.234 447.684 389.379 428.393 390.256 405.946 371.121 412.435 363.046 345.094 322.318 335.624 301.603 347.198 283.17 356.493 297.39 385.253 315.823 368.769Z" fill-rule="evenodd" fill="#222324"/><path d="M313.764 227C319.849 228.811 325.1 228.95 332.021 227.418 320.876 241.1 308.478 249.35 298.586 268.464 317.168 249.292 344.519 227.611 371.871 232.259 334.041 240.127 328.783 251.756 318.514 259.625 320.385 271.988 311.817 270.142 307.842 271.639 289.844 290.334 285.626 306.522 285.165 317.695 290.555 303.699 297.198 295.136 305.093 286.991 297.111 299.369 295.392 309.24 291.168 320.365 294.428 332.048 289.753 339.971 287.166 350.401 273.719 444.485 327.919 514.75 385.877 538.628 384.673 546.059 380.545 548.476 368.484 545.877 361.783 547.005 368.445 552.312 370.931 558.037 375.942 559.012 376.36 559.151 385.964 559.291 395.429 560.544 396.125 570.156 377.612 572.663 411.993 595.23 435.099 566.395 429.392 560.126 423.824 552.186 423.685 542.575 433.985 545.918 476.161 561.937 441.084 612.224 397.656 598.155 385.268 606.722 364.876 596.274 359.656 597.319 362.44 602.473 364.389 602.194 366.338 604.423 357.585 613.164 333.455 597.689 323.008 587.498 309.182 572.203 297.861 557.743 311.177 553.312 298.068 541.284 286.629 514.212 306.926 492.155 278.527 451.895 258.062 414.144 265.157 351.736 257.402 361.684 241.297 363.692 243.147 347.731 256.635 348.112 265.947 337.628 266.073 317.532 265.18 311.96 271.803 312.657 272.58 318.368 273.027 325.679 270.968 330.483 268.491 342.391 273.193 334.144 283.323 319.21 275.08 301.351 270.496 291.824 264.242 288.984 257.988 294.502 252.674 297.905 246.942 293.786 250.396 286.324 252.385 281.613 268.573 271.469 278.496 290.996 287.746 266.321 299.502 248.332 313.764 227Z" fill-rule="evenodd" fill="#222324"/><path d="M683.633 65.0763 668.602 75.0993C705.729 94.8883 781.01 111.979 835.48 87.0498 850.767 78.1834 880.314 55.8244 869.78 31.538 855.135 6.73755 827.001 32.4374 841.646 40.4044 854.492 27.2975 866.568 38.8624 860.916 49.6564 857.833 57.3664 856.291 67.3892 836.636 75.4848 850.767 64.0484 865.669 40.6615 846.656 39.6335 852.052 46.958 848.583 55.8244 842.031 50.042 830.598 44.1311 732.065 9.30756 656.269 62.3779 612.848 97.5869 613.362 115.448 627.75 150.657 642.781 181.626 694.039 175.971 709.069 160.295 725.127 142.947 718.447 123.287 713.694 111.336 705.857 96.0448 674.512 96.9443 667.446 109.794 658.839 124.957 667.189 131.639 673.227 136.394 667.96 112.878 700.847 100.157 700.976 132.153 699.948 157.853 665.005 160.038 649.332 145.646 631.989 128.17 640.468 96.0449 662.05 77.0269 680.164 61.607 714.079 45.0305 747.609 45.8015 735.661 55.5675 732.193 81.5244 753.004 79.7254 751.334 58.1375 770.476 49.6564 789.617 51.9694 805.29 52.7404 821.348 57.3663 837.792 62.7633 823.661 91.9327 742.856 93.3462 683.633 65.0763Z" fill-rule="evenodd" fill="#222324"/><path d="M350.013 183.027C357.557 210.936 352.594 220.864 327.619 224.799 294.242 228.792 282.879 172.348 320.547 145.373 347.281 122.814 367.663 116.793 391.926 111.629 387.792 100.529 373.353 100.796 363.387 99.9774 420.611 51.6671 546.277 27.0696 601.742 52.47 636.105 22.6669 682.475 17.3381 718.339 22.9978 726.593 31.9485 655.297 18.9223 630.53 45.3548 627.207 55.6549 642.395 36.9852 665.589 34.2988 680.299 32.6952 616.461 52.5692 601.653 92.422 600.508 98.5582 608.87 99.6998 608.725 93.5987 610.567 73.4527 664.691 36.0746 698.302 32.4113 707.004 31.6253 706.95 38.5813 698.891 39.0439 669.889 38.9259 624.376 82.7619 617.637 97.3785 611.078 109.427 588.009 110.736 590.456 90.0687 581.489 99.7304 579.276 111.889 576.312 126.546 555.674 114.427 568.556 77.5834 580.438 67.7117 585.3 63.4142 578.654 62.6127 570.758 61.3119 531.311 53.6487 445.335 68.7115 411.892 84.7736 451.275 79.7038 484.154 75.8826 498.522 104.777 502.687 113.071 495.595 115.87 488.504 112.426 483.396 109.982 478.289 112.033 473.181 111.837 514.114 132.356 497.012 179.097 487.914 185.38 464.444 211.655 444.726 203.715 438.267 193.778 429.751 183.025 443.75 157.038 463.752 171.26L464.931 180.085C484.98 172.315 485.767 145.815 459.037 136.548 457.157 136.053 454.611 137.663 458.401 141.654 472.947 157.383 458.03 170.177 445.75 153.004 439.582 144.678 406.147 140.598 375.714 157.745 356.678 165.814 375.916 126.184 405.409 123.016 316.9 115.548 298.935 230.952 350.013 183.027Z" fill-rule="evenodd" fill="#222324"/><path d="M1019.44 226.708C1024.24 220.438 1031.65 256.807 1032.72 296.884 1033.59 313.712 1015.8 343.516 1046.52 350.703 1033.36 342.299 1032.13 333.524 1031.65 323.266 1039.03 333.443 1045.66 339.913 1059 344.899 1056.41 365.406 1038.16 368.116 1022.89 344.871 1021.01 358.323 1014.28 370.293 1006.8 380.779L1002.4 377.613C1015.26 358.328 1018.06 339.414 1016 327.173 1013.52 347.191 1003.96 366.466 992.901 385L986 378.668C1004.78 359.721 1009.76 318.527 1009.89 298.467 1012.08 301.048 1013.91 308.449 1016.47 306.21 1030.89 290.833 1013.23 232.445 1019.44 226.708Z" fill-rule="evenodd" fill="#222324"/><path d="M865 70.9402 871.667 62C936.111 81.5567 1010 150.843 1020 186.045L1012.22 188.28C1002.04 168.724 992.407 150.843 970 136.316 1023.7 197.407 1031.85 309.905 979.444 333L977.778 320.707C1002.87 314.281 1010.46 253.935 991.667 212.307 972.87 170.679 964.167 135.943 865 70.9402Z" fill-rule="evenodd" fill="#222324"/><path d="M1011 410.405C1013.09 422.188 1012.67 433.218 1012 445 1032.05 443.997 1035.8 385.337 1025.28 388.094 1021.69 389.348 1021.36 414.667 1011 410.405Z" fill-rule="evenodd" fill="#222324"/><path d="M906.614 563.938C902.809 566.779 906.21 576.037 911.847 569.991 921.341 556.316 935.556 544.863 940.329 528.967 943.008 522.324 936.99 520.372 934.202 527.552 928.567 539.105 912.745 555.841 906.614 563.938Z" fill-rule="evenodd" fill="#222324"/><path d="M939.421 397C938.579 385.574 952.94 366.28 984 385.57 981.103 371.611 934.092 362.221 939.421 397Z" fill-rule="evenodd"/><path d="M966.066 462.573C975.983 457.761 981.705 454.486 988.414 446.596 991.972 442.814 992.323 458.265 986.505 458.329 973.852 457.18 965.147 475.007 966.066 462.573Z" fill-rule="evenodd"/><path d="M866 484C872.886 475.696 882.704 467.392 890.811 466 894.171 465.979 897.043 468.262 893.074 470.545 883.154 474.262 875.432 479.515 866 484Z" fill-rule="evenodd"/><path d="M868.894 422C858.81 434.485 870.028 443.731 883 446 867.021 435.01 868.083 429.252 868.894 422Z" fill-rule="evenodd"/><path d="M967 449C976.415 443.045 983.968 437.343 988.233 426.704 989.931 420.1 993.862 423.37 992.83 428.412 991.275 435.148 980.038 448.789 967 449Z" fill-rule="evenodd"/><path d="M925 479.843C938.551 479.226 953.325 473.363 955.566 453 963.208 474.083 938.449 487.453 925 479.843Z" fill-rule="evenodd"/><path d="M906.191 478C903.857 456.646 923.488 443.417 932.613 443 947.681 444.146 958.611 457.479 931.021 469.875 925.292 472.479 919.88 471.333 912.876 469.25 909.375 470.292 908.42 475.083 906.191 478Z" fill-rule="evenodd"/><path d="M409 436C395.652 448.358 386.149 463.833 389.779 498 394.157 476.606 395.012 456.459 409 436Z" fill-rule="evenodd"/><path d="M369 462.43C359.881 461.915 355.478 462.944 349.189 472 342.585 458.416 340.384 448.228 346.987 426 350.132 437.937 356.736 455.741 369 462.43Z" fill-rule="evenodd"/><path d="M441.427 128C451.539 123.671 452.662 116.637 433 110.144 448.355 108.521 478.317 120.966 460.527 128L441.427 128Z" fill-rule="evenodd"/><path d="M305 198C317.408 208.105 330.951 214.352 349 198.551 343.359 210.494 324.743 231.255 305 198Z" fill-rule="evenodd"/><path d="M417 91.6425C432.69 91.2681 451.181 95.3871 462.388 104L482 101.192C469.859 92.9532 445.391 86.9618 417 91.6425Z" fill-rule="evenodd"/><path d="M311.296 499C301.836 512.519 301.836 525.308 309.783 537 306.503 519.461 316.846 519.827 319.243 527.135 321.891 535.904 329.838 535.173 334 529.327 323.405 519.218 318.486 509.84 311.296 499Z" fill-rule="evenodd"/><path d="M366 578.028C384.939 588.574 437.519 605.008 446.366 560 449.356 576.801 441.506 588.82 428.424 591.64 406.121 596.668 382.696 594.338 366 578.028Z" fill-rule="evenodd"/><path d="M332 560.5C332 554.149 337.373 549 344 549 350.627 549 356 554.149 356 560.5 356 566.851 350.627 572 344 572 337.373 572 332 566.851 332 560.5Z" fill-rule="evenodd"/><path d="M610 599.847C633.141 600.366 654.398 593.106 670 579 661.937 595.906 640.995 600.988 610 599.847Z" fill-rule="evenodd"/><path d="M747 639C751.867 631.125 773.511 628.333 779 629.131 769.162 635.511 761.498 638.003 747 639Z" fill-rule="evenodd"/><path d="M359.801 193.077C355.513 196.715 359.667 202.604 364.07 200.242 377.352 194.988 412.691 184.001 420.992 201.675 425.306 210.266 431.605 204.854 430.953 195.943 428.581 173.492 387.788 176.836 359.801 193.077Z" fill-rule="evenodd" fill="#222324"/><path d="M505.228 547.763C513.646 540.967 524.781 540.797 530.098 547.384 535.416 553.97 532.902 564.819 524.484 571.615 516.066 578.412 504.931 578.581 499.614 571.995 494.296 565.408 496.81 554.559 505.228 547.763ZM508.777 552.16C502.787 556.995 500.653 564.287 504.01 568.445 507.367 572.604 514.945 572.055 520.935 567.219 526.925 562.383 529.059 555.092 525.702 550.933 522.345 546.775 514.767 547.324 508.777 552.16Z" fill-rule="evenodd" fill="#222324"/><path d="M483.167 541.196C488.889 535.739 496.916 534.869 501.097 539.253 505.277 543.636 504.028 551.614 498.306 557.07 492.584 562.527 484.556 563.397 480.375 559.013 476.195 554.63 477.445 546.652 483.167 541.196ZM486.883 545.092C483.313 548.497 482.144 553.066 484.272 555.297 486.4 557.529 491.02 556.578 494.59 553.174 498.16 549.769 499.328 545.2 497.2 542.969 495.072 540.737 490.453 541.688 486.883 545.092Z" fill-rule="evenodd" fill="#222324"/><path d="M482.095 550.001C480.273 548.458 480.397 545.316 482.372 542.982 484.348 540.649 487.427 540.008 489.249 541.551 491.072 543.094 490.948 546.237 488.973 548.57 486.997 550.903 483.918 551.544 482.095 550.001Z" fill-rule="evenodd" fill="#222324"/><path d="M503.075 564.86C500.366 562.567 500.83 557.567 504.11 553.693 507.39 549.819 512.245 548.537 514.953 550.829 517.661 553.122 517.198 558.122 513.917 561.996 510.637 565.87 505.783 567.152 503.075 564.86Z" fill-rule="evenodd" fill="#222324"/><path d="M530.196 560.159C535.918 554.703 543.945 553.833 548.126 558.216 552.306 562.6 551.057 570.578 545.335 576.034 539.613 581.491 531.585 582.361 527.404 577.977 523.224 573.594 524.474 565.616 530.196 560.159ZM533.912 564.056C530.342 567.461 529.173 572.03 531.301 574.261 533.429 576.493 538.049 575.542 541.619 572.138 545.189 568.733 546.357 564.164 544.229 561.932 542.101 559.701 537.482 560.652 533.912 564.056Z" fill-rule="evenodd" fill="#222324"/><path d="M529.124 568.965C527.302 567.422 527.426 564.28 529.401 561.946 531.377 559.613 534.456 558.972 536.278 560.515 538.101 562.058 537.977 565.201 536.001 567.534 534.026 569.867 530.947 570.508 529.124 568.965Z" fill-rule="evenodd" fill="#222324"/><path d="M878.427 137.831C888.07 132.925 898.999 135.066 902.837 142.611 906.675 150.156 901.969 160.249 892.325 165.154 882.682 170.059 871.753 167.919 867.916 160.374 864.078 152.829 868.784 142.736 878.427 137.831ZM880.989 142.867C874.127 146.357 870.529 153.048 872.952 157.812 875.375 162.576 882.902 163.608 889.764 160.118 896.625 156.628 900.224 149.936 897.801 145.173 895.378 140.409 887.851 139.377 880.989 142.867Z" fill-rule="evenodd" fill="#222324"/><path d="M858.242 125.698C864.97 121.545 873.004 122.357 876.186 127.512 879.368 132.666 876.493 140.212 869.765 144.365 863.036 148.518 855.003 147.706 851.821 142.552 848.639 137.397 851.514 129.852 858.242 125.698ZM861.07 130.28C856.873 132.872 854.783 137.099 856.403 139.724 858.022 142.348 862.738 142.374 866.936 139.783 871.134 137.192 873.224 132.964 871.604 130.34 869.984 127.716 865.268 127.689 861.07 130.28Z" fill-rule="evenodd" fill="#222324"/><path d="M855.37 134.091C853.907 132.204 854.679 129.156 857.095 127.282 859.511 125.408 862.656 125.419 864.119 127.306 865.583 129.193 864.81 132.242 862.394 134.116 859.979 135.989 856.834 135.978 855.37 134.091Z" fill-rule="evenodd" fill="#222324"/><path d="M872.779 154.11C870.605 151.306 872.094 146.511 876.105 143.4 880.117 140.289 885.131 140.041 887.306 142.845 889.481 145.649 887.992 150.444 883.98 153.555 879.969 156.666 874.954 156.914 872.779 154.11Z" fill-rule="evenodd" fill="#222324"/><path d="M900.286 155.13C907.014 150.976 915.048 151.788 918.23 156.943 921.411 162.097 918.537 169.643 911.808 173.796 905.08 177.949 897.046 177.138 893.864 171.983 890.683 166.828 893.557 159.283 900.286 155.13ZM903.114 159.711C898.916 162.303 896.826 166.531 898.446 169.155 900.066 171.779 904.782 171.805 908.98 169.214 913.178 166.623 915.268 162.395 913.648 159.771 912.028 157.147 907.312 157.12 903.114 159.711Z" fill-rule="evenodd" fill="#222324"/><path d="M897.414 163.522C895.95 161.635 896.723 158.587 899.139 156.713 901.555 154.839 904.7 154.85 906.163 156.737 907.626 158.624 906.854 161.673 904.438 163.547 902.022 165.42 898.877 165.409 897.414 163.522Z" fill-rule="evenodd" fill="#222324"/><path d="M330.201 340.611C333.508 296.03 355.572 238.256 405.922 197.688 409.117 199.149 412.67 199.177 415.507 202.07 383.229 222.802 346.322 277.865 337.888 344.115L330.201 340.611Z" fill-rule="evenodd" fill="#222324"/><path d="M478.953 548.903C453.407 536.906 431.82 533.743 404.319 502.87L405.07 493.201C432.458 523.221 461.811 532.475 483.901 541.808L478.953 548.903Z" fill-rule="evenodd" fill="#222324"/><path d="M651.62 577.619C618.475 583.416 595.726 580.99 543.844 575.182L549.822 567.674C597.724 574.531 635.781 574.568 663.748 568.544L651.62 577.619Z" fill-rule="evenodd" fill="#222324"/><path d="M722 567.22 725.088 575C788.081 566.441 840.804 532.944 875 515.129L865.384 509C822.689 536.468 775.494 556.77 722 567.22Z" fill-rule="evenodd" fill="#222324"/><path d="M957.492 363.245 970.753 364C990.994 325.534 985.155 216.195 917.44 164L909 173.347C951.627 202.547 991.216 292.647 957.492 363.245Z" fill-rule="evenodd" fill="#222324"/><path d="M852.033 136 861 127.448C811.264 108.206 762.964 99.6544 710 100.011L711.435 110.344C757.942 109.632 800.504 114.977 852.033 136Z" fill-rule="evenodd" fill="#222324"/><path d="M500 134.823C502.734 138.249 502.333 139.362 503.922 144 524.535 136.612 546.143 129.993 568 124.911 565.623 122.342 564.78 119.405 563.829 115 540.81 119.814 519.534 126.166 500 134.823Z" fill-rule="evenodd" fill="#222324"/><path d="M582.581 112.576C581.065 116.657 580.658 118.487 580 123 595.333 118.305 601.843 118.845 617.175 116.642 617.288 113.146 617.442 111.784 619 107 603.499 108.443 594.805 108.64 582.581 112.576Z" fill-rule="evenodd" fill="#222324"/><path d="M647.061 101.743C644.983 105.577 645.069 107.085 643.77 111.47 659.497 109.004 655.808 110.47 665.924 110.478 666.54 107.023 667.389 104.944 669.61 100.418 654.188 99.6334 656.377 100.335 647.061 101.743Z" fill-rule="evenodd" fill="#222324"/><path d="M503 356 531.501 354.317 528.706 344.778 529.265 320.09 538.207 353.756 573.972 349.267C622.591 347.396 631.532 261.363 592.973 250.516 580.306 248.458 572.109 253.134 561.678 254.443 562.982 258.558 565.404 258.184 565.59 266.787 565.404 291.101 565.217 315.415 565.031 339.728 554.599 340.476 553.109 317.659 547.148 306.624 551.246 301.387 559.256 301.762 559.443 290.914L559.443 276.887C557.58 268.657 555.717 260.989 542.119 260.615L504.118 261.176C511.936 286.168 516.226 318.781 503 356Z" fill-rule="evenodd" fill="#222324"/><path d="M410 344.008C418.421 334.202 417.86 231.141 411.684 223 431.708 226.146 445.556 232.621 471.754 232.436L474 255.195 440.877 249.644 440.877 257.415 458.842 261.856 457.719 280.729 440.316 278.508C439.193 293.496 439.193 310.148 440.316 331.797 440.316 339.198 443.684 346.599 445.368 354L410 344.008Z" fill-rule="evenodd" fill="#222324"/><path d="M447 310C447 283.49 459.536 262 475 262 490.464 262 503 283.49 503 310 503 336.51 490.464 358 475 358 459.536 358 447 336.51 447 310ZM467.125 310C467.125 325.395 470.651 337.875 475 337.875 479.349 337.875 482.875 325.395 482.875 310 482.875 294.605 479.349 282.125 475 282.125 470.651 282.125 467.125 294.605 467.125 310Z" fill-rule="evenodd" fill="#222324"/><path d="M530 294.999C530.08 288.999 530.16 283 530.241 277 535.615 277 536.658 281.31 536.978 285.366 537.299 290.605 534.011 295.083 530 294.999Z" fill-rule="evenodd"/><path d="M586 324.996C586.08 305.998 586.16 286.999 586.241 268 591.615 268 592.658 281.647 592.978 294.491 593.299 311.082 590.011 325.264 586 324.996Z" fill-rule="evenodd"/><path d="M600.741 364.19C600.036 338.557 561.714 363.955 581.834 378.611 613.416 403.761 652.388 351.694 649.712 274.447L663.524 315.239 675.453 269.426C677.337 286.161 686.945 307.597 681.104 319.632L712.963 313.312C717.544 309.873 705.567 305.971 703.886 297.989 700.19 280.607 691.656 226.858 688.436 209.692 685.215 192.526 693.152 198.151 689.266 196L664.78 199.138C671.079 215.354 663.943 215.455 663.524 223.613 662.269 216.292 655.975 216.02 659.757 201.648L637.783 207.924C645.526 228.634 619.367 386.782 600.741 364.19Z" fill-rule="evenodd" fill="#222324"/><path d="M799 252C799 225.49 811.536 204 827 204 842.464 204 855 225.49 855 252 855 278.51 842.464 300 827 300 811.536 300 799 278.51 799 252ZM819.125 252C819.125 267.395 822.651 279.875 827 279.875 831.349 279.875 834.875 267.395 834.875 252 834.875 236.605 831.349 224.125 827 224.125 822.651 224.125 819.125 236.605 819.125 252Z" fill-rule="evenodd" fill="#222324"/><path d="M706 257C706 230.49 718.76 209 734.5 209 750.24 209 763 230.49 763 257 763 283.51 750.24 305 734.5 305 718.76 305 706 283.51 706 257ZM726.485 257C726.485 272.196 730.073 284.515 734.5 284.515 738.927 284.515 742.515 272.196 742.515 257 742.515 241.804 738.927 229.485 734.5 229.485 730.073 229.485 726.485 241.804 726.485 257Z" fill-rule="evenodd" fill="#222324"/><path d="M754 230.846 759.436 206.678 802.583 205 805.981 223.461 807 233.531 797.827 223.461 791.372 223.126C791.598 244.16 791.825 268.887 792.051 289.922 799.186 291.936 799.186 300.663 790.013 300.327L772.686 300.999C764.419 301.111 760.908 294.509 767.25 291.264L768.609 222.119 754 230.846Z" fill-rule="evenodd" fill="#222324"/><path d="M857 210 882.202 211.083C903.999 213.874 920.741 243.788 901.078 254.616L912.201 303.171C916.583 307.748 912.201 316.008 907.145 311.878L889.28 304.176C886.134 290.893 883.662 266.894 879.842 264.327L876.134 246.914C896.696 247.807 885.91 229.947 879.505 227.491L857 210Z" fill-rule="evenodd" fill="#222324"/><path d="M857 209C858.333 212.581 860.667 213.477 861 219.744L860 300.321 882 302C881.778 277.043 881.556 252.087 881.333 227.13L857 209Z" fill-rule="evenodd" fill="#222324"/><path d="M787.107 324.684 790.862 342.887C784.564 345.407 747.589 321.168 742.038 357.951 747.558 389.687 780.262 376.156 799 369.877 790.33 397.172 764.45 399.957 744.307 394.99 725.395 389.148 717.407 379.49 717 359.207 716.984 334.212 736.822 315.896 775.84 323.428 780.593 319.595 785.596 320.514 787.107 324.684Z" fill-rule="evenodd" fill="#222324"/><path d="M792 366.5C792 347.998 808.565 333 829 333 849.435 333 866 347.998 866 366.5 866 385.002 849.435 400 829 400 808.565 400 792 385.002 792 366.5ZM808.75 366.5C808.75 375.751 817.816 383.25 829 383.25 840.184 383.25 849.25 375.751 849.25 366.5 849.25 357.249 840.184 349.75 829 349.75 817.816 349.75 808.75 357.249 808.75 366.5Z" fill-rule="evenodd" fill="#222324"/><path d="M798 366.5C798 347.998 811.879 333 829 333 846.121 333 860 347.998 860 366.5 860 385.002 846.121 400 829 400 811.879 400 798 385.002 798 366.5ZM818.359 366.5C818.359 373.758 823.123 379.641 829 379.641 834.877 379.641 839.641 373.758 839.641 366.5 839.641 359.242 834.877 353.359 829 353.359 823.123 353.359 818.359 359.242 818.359 366.5Z" fill-rule="evenodd" fill="#222324"/><path d="M863 386.5C863 380.701 867.925 376 874 376 880.075 376 885 380.701 885 386.5 885 392.299 880.075 397 874 397 867.925 397 863 392.299 863 386.5Z" fill-rule="evenodd" fill="#222324"/><path d="M546 417.237 546 459 577.25 459 584 447.068C577.583 443.753 571.917 448.891 563.25 447.565 563.25 445.659 563.25 443.753 563.25 441.847L573 441.847C576 438.367 576.25 435.384 573 432.153L563.5 431.904 563.5 427.927C570 426.269 575.25 429.832 580.75 427.429 580.75 422.043 578.25 419.143 574 415L546 417.237Z" fill-rule="evenodd" fill="#222324"/><path d="M670.778 486.691C672.907 483.067 674.781 479.69 670.267 476.561 655.19 471.866 634.747 471.372 635.002 495.091 635.684 515.927 656.808 518.48 673.078 507.939 676.144 504.315 674.867 502.174 673.844 499.291 649.312 510.656 642.157 481.008 670.778 486.691Z" fill-rule="evenodd" fill="#222324"/><path d="M584.569 415C594.595 416.853 604.111 417.382 614.647 415L620 425.851 609.549 426.116C607.255 437.673 609.549 446.583 609.549 456.817 603.261 459.728 596.974 459.728 590.686 456.817 590.771 446.671 593.405 436.79 590.941 426.38L581 425.587 584.569 415Z" fill-rule="evenodd" fill="#222324"/><path d="M622.507 416.654 621 457.717 638.335 457.973C642.606 454.808 643.108 451.13 640.596 446.681 637.749 440.778 634.399 432.566 640.345 425.38 648.887 423.583 651.901 433.849 643.36 434.619 639.507 435.474 640.177 439.923 642.355 444.115L651.901 459 672 456.434 661.197 440.522C676.103 427.946 664.882 413.574 648.635 415.114L622.507 416.654Z" fill-rule="evenodd" fill="#222324"/><path d="M497.086 408.325 497.086 448.977C495.405 451.062 492.971 450.156 492.797 455.231 496.661 459.803 497.511 458.893 502.63 458.979 530.472 459.424 545.758 450.648 541.205 416.456 535.971 386.361 497.086 383.179 475.026 396.443 453.717 411.478 463.296 424.521 470.614 429.589 482.862 434.681 493.352 430.303 490.783 416.456 460.717 414.412 502.192 392.514 515.979 407.856 532.78 429.428 515.495 443.43 514.743 442.723L514.733 414.58C510.609 407.262 504.224 405.426 497.086 408.325Z" fill-rule="evenodd" fill="#222324"/><path d="M673 437C673 424.85 683.969 415 697.5 415 711.031 415 722 424.85 722 437 722 449.15 711.031 459 697.5 459 683.969 459 673 449.15 673 437ZM684 437C684 443.075 690.044 448 697.5 448 704.956 448 711 443.075 711 437 711 430.925 704.956 426 697.5 426 690.044 426 684 430.925 684 437Z" fill-rule="evenodd" fill="#222324"/><path d="M677 436.5C677 425.178 686.178 416 697.5 416 708.822 416 718 425.178 718 436.5 718 447.822 708.822 457 697.5 457 686.178 457 677 447.822 677 436.5ZM688.71 436.5C688.71 441.355 692.645 445.29 697.5 445.29 702.355 445.29 706.29 441.355 706.29 436.5 706.29 431.645 702.355 427.71 697.5 427.71 692.645 427.71 688.71 431.645 688.71 436.5Z" fill-rule="evenodd" fill="#222324"/><path d="M751.477 415C761.246 416.853 770.518 417.382 780.784 415L786 425.851 775.817 426.116C773.582 437.673 775.817 446.583 775.817 456.817 769.691 459.728 763.564 459.728 757.438 456.817 757.521 446.671 760.087 436.79 757.686 426.38L748 425.587 751.477 415Z" fill-rule="evenodd" fill="#222324"/><path d="M725.77 416.386C734.586 414.516 735.698 415.044 744 415.147 742.203 430.278 742.459 441.197 744 456.824 737.667 459.725 731.333 459.725 725 456.824 727.225 447.4 727.14 424.571 725.77 416.386Z" fill-rule="evenodd" fill="#222324"/><path d="M610.73 478.134C619.081 476.604 620.135 477.036 628 477.12 626.297 489.5 626.54 498.434 628 511.22 622 513.593 616 513.594 610 511.22 612.108 503.509 612.027 484.831 610.73 478.134Z" fill-rule="evenodd" fill="#222324"/><path d="M556.742 477.496C558.227 489.243 557.237 498.26 556 510.504L570.598 510.504C570.68 506.367 570.763 502.231 570.845 498.095L577.526 505.788 585.938 497.847 585.196 511 603.505 510.504C601.691 499.336 601.361 489.161 604 477.745L585.443 477.496 579.01 485.438 572.082 477 556.742 477.496Z" fill-rule="evenodd" fill="#222324"/><path d="M679.25 478.321C679.167 488.965 679.083 499.61 679 510.254 684.75 511.41 690.25 511.327 696.25 509.264 696.167 506.211 696.083 503.158 696 500.105L700 500.353 700.75 510.75C705.5 510.584 710 510.915 715 510.254L715 476.588C709.25 476.011 705 475.433 700 477.083L700.75 486.242 695.25 485.747 695.5 477.826C689.5 476.753 684 476.423 679.25 478.321Z" fill-rule="evenodd" fill="#222324"/><path d="M721 503C721 498.582 724.582 495 729 495 733.418 495 737 498.582 737 503 737 507.418 733.418 511 729 511 724.582 511 721 507.418 721 503Z" fill-rule="evenodd" fill="#222324"/><path d="M740 490C740 486.134 747.387 483 756.5 483 765.613 483 773 486.134 773 490 773 493.866 765.613 497 756.5 497 747.387 497 740 493.866 740 490Z" fill-rule="evenodd" fill="#222324"/><path d="M510 490C510 486.134 517.387 483 526.5 483 535.613 483 543 486.134 543 490 543 493.866 535.613 497 526.5 497 517.387 497 510 493.866 510 490Z" fill-rule="evenodd" fill="#222324"/><path d="M784 448C784 443.582 787.582 440 792 440 796.418 440 800 443.582 800 448 800 452.418 796.418 456 792 456 787.582 456 784 452.418 784 448Z" fill-rule="evenodd" fill="#222324"/><path d="M799 453.245 788.067 465 787 453 799 453.245Z" fill-rule="evenodd" fill="#222324"/></g></svg>